<svg id="Groupe_59" data-name="Groupe 59" xmlns="http://www.w3.org/2000/svg" xmlns:xlink="http://www.w3.org/1999/xlink" width="99.849" height="78.796" viewBox="0 0 99.849 78.796">
  <defs>
    <clipPath id="clip-path">
      <rect id="Rectangle_91" data-name="Rectangle 91" width="99.849" height="78.796" fill="#0f2f78" stroke="#0f2f78" stroke-width="1.5"/>
    </clipPath>
  </defs>
  <g id="Groupe_58" data-name="Groupe 58" clip-path="url(#clip-path)">
    <path id="Tracé_102" data-name="Tracé 102" d="M70.522,99.92a7.911,7.911,0,1,0,7.91,7.911,7.92,7.92,0,0,0-7.91-7.911m0,13.3a5.39,5.39,0,1,1,5.389-5.389,5.4,5.4,0,0,1-5.389,5.389" transform="translate(-23.151 -36.946)" fill="#0f2f78" stroke="#0f2f78" stroke-width="1.5"/>
    <path id="Tracé_103" data-name="Tracé 103" d="M122.91,115.743a7.911,7.911,0,1,0-7.91-7.911,7.92,7.92,0,0,0,7.91,7.911m0-13.3a5.39,5.39,0,1,1-5.389,5.39,5.4,5.4,0,0,1,5.389-5.39" transform="translate(-42.522 -36.946)" fill="#0f2f78" stroke="#0f2f78" stroke-width="1.5"/>
    <path id="Tracé_104" data-name="Tracé 104" d="M3.894,11.537h9.643a3.9,3.9,0,0,0,3.893-3.893V7.5a1.26,1.26,0,1,0-2.521,0v.141a1.374,1.374,0,0,1-1.372,1.372H3.894A1.374,1.374,0,0,1,2.521,7.644v-1.4A1.374,1.374,0,0,1,3.894,4.873h13.04a4.481,4.481,0,0,1,3.95,2.885l15.267,47.8a8.736,8.736,0,0,0,.405,17.458h.014a1.261,1.261,0,0,0,.013-2.521,6.221,6.221,0,0,1,.069-12.442h46.3a7.051,7.051,0,0,0,6.372-4.624L99.6,21.905A3.946,3.946,0,0,0,95.68,16.5H76.957a1.26,1.26,0,0,0,0,2.521H95.68a1.68,1.68,0,0,1,1.414.579,1.678,1.678,0,0,1,.113,1.524L86.923,52.646a4.527,4.527,0,0,1-3.976,2.885H38.789L23.285,6.992a7.006,7.006,0,0,0-6.352-4.64H3.894A3.9,3.9,0,0,0,0,6.246v1.4a3.9,3.9,0,0,0,3.894,3.893" transform="translate(0 -0.87)" fill="#0f2f78" stroke="#0f2f78" stroke-width="1.5"/>
    <path id="Tracé_105" data-name="Tracé 105" d="M45.8,26.06a1.261,1.261,0,0,0,1.26,1.26H62.594a1.26,1.26,0,0,0,0-2.521H47.063a1.261,1.261,0,0,0-1.26,1.26" transform="translate(-16.936 -9.17)" fill="#0f2f78" stroke="#0f2f78" stroke-width="1.5"/>
    <path id="Tracé_106" data-name="Tracé 106" d="M102.958,112.994a1.26,1.26,0,1,0,0-2.521H92.1a1.26,1.26,0,1,0,0,2.521Z" transform="translate(-33.59 -40.848)" fill="#0f2f78" stroke="#0f2f78" stroke-width="1.5"/>
    <path id="Tracé_107" data-name="Tracé 107" d="M84.647,46.094a2.694,2.694,0,0,0,4.4,0l15.256-19.872a2.116,2.116,0,0,0-1.773-3.595H96.728a.715.715,0,0,1-.714-.714V3.235A3.239,3.239,0,0,0,92.779,0H80.918a3.239,3.239,0,0,0-3.235,3.235V21.912a.715.715,0,0,1-.714.714H71.162a2.116,2.116,0,0,0-1.772,3.595ZM76.969,25.147A3.239,3.239,0,0,0,80.2,21.912V3.235a.715.715,0,0,1,.714-.714H92.779a.715.715,0,0,1,.714.714V21.912a3.239,3.239,0,0,0,3.235,3.235h5.225l-14.9,19.411c-.164.214-.241.214-.4,0l-14.9-19.412Z" transform="translate(-25.436)" fill="#0f2f78" stroke="#0f2f78" stroke-width="1.5"/>
  </g>
</svg>
