<svg xmlns="http://www.w3.org/2000/svg" xmlns:xlink="http://www.w3.org/1999/xlink" width="99.565" height="70.047" viewBox="0 0 99.565 70.047">
  <defs>
    <clipPath id="clip-path">
      <rect id="Rectangle_76" data-name="Rectangle 76" width="99.565" height="70.047" fill="#0f2f78"/>
    </clipPath>
  </defs>
  <g id="Groupe_42" data-name="Groupe 42" transform="translate(-264 -33.482)">
    <g id="Groupe_41" data-name="Groupe 41" transform="translate(264 33.482)" clip-path="url(#clip-path)">
      <path id="Tracé_66" data-name="Tracé 66" d="M99.565,20.825V16.752H89.558l-3.966,3.467L79.643,6.7C77.918,2.318,74.41,0,69.5,0H30.067c-4.913,0-8.422,2.318-10.115,6.628l-5.98,13.59-3.966-3.467H0v4.073H8.478l3.107,2.716-4.04,3.4a12.321,12.321,0,0,0-4.39,9.44V51.862a7.531,7.531,0,0,0,3.7,6.477v6.58a5.135,5.135,0,0,0,5.129,5.129h8.246a5.134,5.134,0,0,0,5.129-5.129V59.4H74.545v5.523a5.134,5.134,0,0,0,5.129,5.129H87.92a5.135,5.135,0,0,0,5.129-5.129V58.13a7.532,7.532,0,0,0,3.36-6.268V36.385a12.319,12.319,0,0,0-4.39-9.44l-4.04-3.4,3.107-2.716ZM23.712,8.194c1.105-2.811,3.125-4.121,6.355-4.121H69.5c3.23,0,5.25,1.309,6.387,4.2l6.488,14.746L77.707,27.15H21.857l-4.665-4.135ZM21.29,64.919a1.057,1.057,0,0,1-1.056,1.055H11.988a1.057,1.057,0,0,1-1.056-1.055V59.4H21.29Zm67.686,0a1.057,1.057,0,0,1-1.056,1.055H79.674a1.057,1.057,0,0,1-1.056-1.055V59.4H88.875c.034,0,.067,0,.1-.005Zm.419-34.859a8.253,8.253,0,0,1,2.941,6.325V51.862a3.465,3.465,0,0,1-3.461,3.461H10.689a3.465,3.465,0,0,1-3.461-3.461V36.385A8.254,8.254,0,0,1,10.17,30.06l4.518-3.807,1.19,1.041,4.434,3.929H79.253l4.43-3.927,1.193-1.043Z" fill="#0f2f78"/>
      <rect id="Rectangle_75" data-name="Rectangle 75" width="34.551" height="4.073" transform="translate(32.507 47.764)" fill="#0f2f78"/>
      <path id="Tracé_67" data-name="Tracé 67" d="M61.187,137.961a2.037,2.037,0,0,0-.494-2.233l-6.185-5.841a2.036,2.036,0,1,0-2.8,2.961l2.46,2.324H45.208c-4.236,0-5.727-4.235-5.8-4.441a2.036,2.036,0,0,0-3.872,1.264c.1.3,2.43,7.25,9.668,7.25H59.295a2.037,2.037,0,0,0,1.893-1.284" transform="translate(-25.929 -94.623)" fill="#0f2f78"/>
      <path id="Tracé_68" data-name="Tracé 68" d="M255.2,135.173H246.24l2.46-2.324a2.036,2.036,0,1,0-2.8-2.961l-6.184,5.841a2.036,2.036,0,0,0,1.4,3.517H255.2c7.239,0,9.573-6.954,9.668-7.25A2.036,2.036,0,0,0,261,130.73c-.061.181-1.547,4.443-5.8,4.443" transform="translate(-174.919 -94.624)" fill="#0f2f78"/>
    </g>
  </g>
</svg>
