<svg xmlns="http://www.w3.org/2000/svg" width="20.87" height="20.874" viewBox="0 0 20.87 20.874">
  <g id="Groupe_14" data-name="Groupe 14" transform="translate(1.783 1.783)">
    <g id="Groupe_15" data-name="Groupe 15" transform="translate(-1.533 -1.533)">
      <path id="Tracé_59" data-name="Tracé 59" d="M10.185,20.476A10.185,10.185,0,1,1,20.37,10.291,10.185,10.185,0,0,1,10.185,20.476" transform="translate(0 -0.103)" fill="#111e72" stroke="#fff" stroke-width="0.5"/>
      <path id="Tracé_60" data-name="Tracé 60" d="M487.212,20.966V40.155a10.181,10.181,0,0,0,0-19.189" transform="translate(-473.617 -20.381)" fill="#dd1a1e" stroke="#fff" stroke-width="0.5"/>
      <path id="Tracé_61" data-name="Tracé 61" d="M246.2,0a9.986,9.986,0,0,0-3.41.585v19.2a10.231,10.231,0,0,0,6.82,0V.585A9.986,9.986,0,0,0,246.2,0" transform="translate(-236.013 0)" fill="#f4f4f4" stroke="#fff" stroke-width="0.5"/>
    </g>
  </g>
</svg>
