<svg xmlns="http://www.w3.org/2000/svg" xmlns:xlink="http://www.w3.org/1999/xlink" width="92.648" height="85.872" viewBox="0 0 92.648 85.872">
  <defs>
    <clipPath id="clip-path">
      <rect id="Rectangle_90" data-name="Rectangle 90" width="92.648" height="85.872" fill="none" stroke="#0f2f78" stroke-width="3"/>
    </clipPath>
  </defs>
  <g id="Groupe_57" data-name="Groupe 57" transform="translate(0 0)">
    <g id="Groupe_56" data-name="Groupe 56" transform="translate(0 0)" clip-path="url(#clip-path)">
      <path id="Tracé_97" data-name="Tracé 97" d="M57.32,22.758,53.6,13.777,48.136,15.6a23.2,23.2,0,0,0-5.414-5.4l1.822-5.471L35.563,1,32.984,6.157a23.2,23.2,0,0,0-7.65-.006L22.756,1l-8.98,3.721,1.818,5.465a23.188,23.188,0,0,0-5.4,5.412l-5.471-1.82L1,22.758l5.155,2.581a23.2,23.2,0,0,0-.006,7.65L1,35.564l3.719,8.98,5.465-1.818a23.121,23.121,0,0,0,5.414,5.4L13.776,53.6l8.98,3.719,2.581-5.155a23.252,23.252,0,0,0,7.65.006l2.579,5.149,8.98-3.719-1.82-5.465a23.159,23.159,0,0,0,5.406-5.412l5.471,1.82,3.719-8.98-5.155-2.581a23.135,23.135,0,0,0,0-7.648Z" transform="translate(0.959 0.958)" fill="none" stroke="#0f2f78" stroke-linejoin="round" stroke-width="3"/>
      <path id="Tracé_98" data-name="Tracé 98" d="M33.471,16.19a6.431,6.431,0,1,1,9.158,8.028" transform="translate(32.113 11.727)" fill="none" stroke="#0f2f78" stroke-linejoin="round" stroke-width="3"/>
      <path id="Tracé_99" data-name="Tracé 99" d="M64.928,38.007l-2.565-6.194L57.574,33.8a14.781,14.781,0,0,0-3.443-3.439l1.985-4.791L49.922,23l-1.985,4.793a14.742,14.742,0,0,0-4.865,0L41.087,23l-6.194,2.565,1.983,4.789A14.772,14.772,0,0,0,33.44,33.8l-4.793-1.985-2.565,6.194,4.793,1.985a14.69,14.69,0,0,0,0,4.865L26.082,46.84l2.565,6.194,4.789-1.983a14.735,14.735,0,0,0,3.443,3.437l-1.985,4.793,6.194,2.565,1.985-4.791a14.8,14.8,0,0,0,4.865,0l1.985,4.789,6.194-2.567-1.983-4.789a14.7,14.7,0,0,0,3.437-3.443l4.793,1.985,2.565-6.194-4.793-1.985a14.69,14.69,0,0,0,0-4.865Z" transform="translate(25.024 22.066)" fill="none" stroke="#0f2f78" stroke-linejoin="round" stroke-width="3"/>
      <path id="Tracé_100" data-name="Tracé 100" d="M52.321,33.919l4.55,2.212,2.859-5.88-4.55-2.212a14.354,14.354,0,0,0,.288-4.738l4.777-1.652-2.136-6.18L53.332,17.12a14.407,14.407,0,0,0-3.151-3.549l2.212-4.55-5.88-2.859L44.3,10.713a14.338,14.338,0,0,0-4.736-.288L37.911,5.646l-6.18,2.136,1.652,4.779" transform="translate(30.444 5.416)" fill="none" stroke="#0f2f78" stroke-linejoin="round" stroke-width="3"/>
      <circle id="Ellipse_2" data-name="Ellipse 2" cx="6" cy="6" r="6" transform="translate(64.683 59.024)" fill="none" stroke="#0f2f78" stroke-linejoin="round" stroke-width="3"/>
      <line id="Ligne_27" data-name="Ligne 27" y2="5.878" transform="translate(29.946 15.333)" fill="none" stroke="#0f2f78" stroke-linejoin="round" stroke-width="3"/>
      <line id="Ligne_28" data-name="Ligne 28" y2="5.878" transform="translate(29.946 38.846)" fill="none" stroke="#0f2f78" stroke-linejoin="round" stroke-width="3"/>
      <path id="Tracé_101" data-name="Tracé 101" d="M33.471,17.515a8.58,8.58,0,1,1,12.218,10.71" transform="translate(-11.778 9.894)" fill="none" stroke="#0f2f78" stroke-linejoin="round" stroke-width="3"/>
    </g>
  </g>
</svg>
