<svg id="Groupe_49" data-name="Groupe 49" xmlns="http://www.w3.org/2000/svg" xmlns:xlink="http://www.w3.org/1999/xlink" width="89.56" height="82.198" viewBox="0 0 89.56 82.198">
  <defs>
    <clipPath id="clip-path">
      <rect id="Rectangle_86" data-name="Rectangle 86" width="89.56" height="82.198" fill="#0f2f78" stroke="#0f2f78" stroke-width="1"/>
    </clipPath>
  </defs>
  <g id="Groupe_48" data-name="Groupe 48" clip-path="url(#clip-path)">
    <path id="Tracé_73" data-name="Tracé 73" d="M9.427,99.868A9.438,9.438,0,0,1,0,90.441V59.016a9.427,9.427,0,1,1,18.855,0V90.441a9.438,9.438,0,0,1-9.427,9.427m0-47.137a6.291,6.291,0,0,0-6.285,6.285V90.441a6.285,6.285,0,0,0,12.57,0V59.016a6.291,6.291,0,0,0-6.285-6.285" transform="translate(0 -33.383)" fill="#0f2f78" stroke="#0f2f78" stroke-width="1"/>
    <rect id="Rectangle_79" data-name="Rectangle 79" width="3.142" height="10.999" transform="translate(7.856 64.914)" fill="#0f2f78" stroke="#0f2f78" stroke-width="1"/>
    <rect id="Rectangle_80" data-name="Rectangle 80" width="81.704" height="3.142" transform="translate(3.142 74.342)" fill="#0f2f78" stroke="#0f2f78" stroke-width="1"/>
    <rect id="Rectangle_81" data-name="Rectangle 81" width="12.57" height="3.142" transform="translate(26.711 79.056)" fill="#0f2f78" stroke="#0f2f78" stroke-width="1"/>
    <path id="Tracé_74" data-name="Tracé 74" d="M116.987,44.488a3.247,3.247,0,0,1-2.122-.74L80.645,14.406,51.812,38.734l-2.026-2.4L80.66,10.282,116.9,41.355l3.029-3.611C108.7,28.265,85.737,8.516,80.641,4.129L51.812,28.455l-2.026-2.4L80.663,0l1.014.875c.276.238,27.675,23.831,40.284,34.47a3.017,3.017,0,0,1,1.114,2.286,3.265,3.265,0,0,1-.744,2.141l-3.038,3.6a3.034,3.034,0,0,1-2.306,1.117" transform="translate(-33.515)" fill="#0f2f78" stroke="#0f2f78" stroke-width="1"/>
    <path id="Tracé_75" data-name="Tracé 75" d="M196.833,24.662h-3.143V4.655h-7.856V15.237h-3.142V4.655a3.147,3.147,0,0,1,3.142-3.143h7.856a3.147,3.147,0,0,1,3.143,3.143Z" transform="translate(-122.986 -1.018)" fill="#0f2f78" stroke="#0f2f78" stroke-width="1"/>
    <path id="Tracé_76" data-name="Tracé 76" d="M134.24,157.842H131.1v-33h-12.57v33h-3.142v-33a3.146,3.146,0,0,1,3.142-3.142H131.1a3.147,3.147,0,0,1,3.142,3.142Z" transform="translate(-77.675 -81.929)" fill="#0f2f78" stroke="#0f2f78" stroke-width="1"/>
    <path id="Tracé_77" data-name="Tracé 77" d="M75.164,154.983H70.45a3.146,3.146,0,0,1-3.142-3.142V139.27a3.146,3.146,0,0,1,3.142-3.142h4.714a3.146,3.146,0,0,1,3.142,3.142v12.57a3.146,3.146,0,0,1-3.142,3.142M70.45,139.27h0l0,12.57h4.714V139.27Z" transform="translate(-45.311 -91.639)" fill="#0f2f78" stroke="#0f2f78" stroke-width="1"/>
    <path id="Tracé_78" data-name="Tracé 78" d="M195.356,154.983h-4.714a3.146,3.146,0,0,1-3.142-3.142V139.27a3.146,3.146,0,0,1,3.142-3.142h4.714a3.146,3.146,0,0,1,3.142,3.142v12.57a3.146,3.146,0,0,1-3.142,3.142m-4.714-15.712h0l0,12.57h4.714V139.27Z" transform="translate(-126.222 -91.639)" fill="#0f2f78" stroke="#0f2f78" stroke-width="1"/>
    <rect id="Rectangle_82" data-name="Rectangle 82" width="3.142" height="36.624" transform="translate(76.99 39.288)" fill="#0f2f78" stroke="#0f2f78" stroke-width="1"/>
    <rect id="Rectangle_83" data-name="Rectangle 83" width="3.142" height="7.856" transform="translate(43.994 55.487)" fill="#0f2f78" stroke="#0f2f78" stroke-width="1"/>
    <rect id="Rectangle_84" data-name="Rectangle 84" width="3.142" height="3.142" transform="translate(6.285 42.917)" fill="#0f2f78" stroke="#0f2f78" stroke-width="1"/>
    <rect id="Rectangle_85" data-name="Rectangle 85" width="3.142" height="10.999" transform="translate(6.285 28.776)" fill="#0f2f78" stroke="#0f2f78" stroke-width="1"/>
  </g>
</svg>
