<svg id="Groupe_51" data-name="Groupe 51" xmlns="http://www.w3.org/2000/svg" xmlns:xlink="http://www.w3.org/1999/xlink" width="82.537" height="82.538" viewBox="0 0 82.537 82.538">
  <defs>
    <clipPath id="clip-path">
      <rect id="Rectangle_87" data-name="Rectangle 87" width="82.537" height="82.538" fill="#0f2f78" stroke="#0f2f78" stroke-width="1"/>
    </clipPath>
  </defs>
  <g id="Groupe_50" data-name="Groupe 50" clip-path="url(#clip-path)">
    <path id="Tracé_79" data-name="Tracé 79" d="M45.782,82.538H36.755A10.741,10.741,0,0,1,26.027,71.809v-15.3h-15.3A10.741,10.741,0,0,1,0,45.782V36.756A10.741,10.741,0,0,1,10.729,26.027h15.3v-15.3A10.741,10.741,0,0,1,36.755,0h9.027A10.741,10.741,0,0,1,56.511,10.729v15.3h15.3A10.741,10.741,0,0,1,82.537,36.756v9.027A10.741,10.741,0,0,1,71.809,56.511h-15.3v15.3A10.741,10.741,0,0,1,45.782,82.538M10.729,29.431A7.333,7.333,0,0,0,3.4,36.756v9.027a7.333,7.333,0,0,0,7.324,7.324h17a1.7,1.7,0,0,1,1.7,1.7v17a7.333,7.333,0,0,0,7.324,7.324h9.027a7.333,7.333,0,0,0,7.324-7.324v-17a1.7,1.7,0,0,1,1.7-1.7h17a7.333,7.333,0,0,0,7.324-7.324V36.756a7.333,7.333,0,0,0-7.324-7.324h-17a1.7,1.7,0,0,1-1.7-1.7v-17A7.333,7.333,0,0,0,45.782,3.4H36.755a7.333,7.333,0,0,0-7.324,7.324v17a1.7,1.7,0,0,1-1.7,1.7Z" fill="#0f2f78" stroke="#0f2f78" stroke-width="1"/>
  </g>
</svg>
