<svg id="Groupe_55" data-name="Groupe 55" xmlns="http://www.w3.org/2000/svg" xmlns:xlink="http://www.w3.org/1999/xlink" width="86.036" height="86.133" viewBox="0 0 86.036 86.133">
  <defs>
    <clipPath id="clip-path">
      <rect id="Rectangle_89" data-name="Rectangle 89" width="86.036" height="86.133" fill="#0f2f78"/>
    </clipPath>
  </defs>
  <g id="Groupe_54" data-name="Groupe 54" clip-path="url(#clip-path)">
    <path id="Tracé_83" data-name="Tracé 83" d="M85.659,82.6H78.034a5.339,5.339,0,0,1-5.181-5.473,1.661,1.661,0,0,1,3.321,0,2.051,2.051,0,0,0,1.859,2.152h7.626a2.051,2.051,0,0,0,1.859-2.152,1.661,1.661,0,0,1,3.321,0A5.339,5.339,0,0,1,85.659,82.6" transform="translate(-40.196 -41.637)" fill="#0f2f78"/>
    <path id="Tracé_84" data-name="Tracé 84" d="M82.366,115.644a1.658,1.658,0,0,1-1.661-1.66V85.63a1.661,1.661,0,1,1,3.321,0v28.354a1.657,1.657,0,0,1-1.66,1.66" transform="translate(-44.528 -46.329)" fill="#0f2f78"/>
    <path id="Tracé_85" data-name="Tracé 85" d="M99.378,115.644a1.657,1.657,0,0,1-1.66-1.66V85.63a1.66,1.66,0,1,1,3.321,0v28.354a1.657,1.657,0,0,1-1.66,1.66" transform="translate(-53.915 -46.329)" fill="#0f2f78"/>
    <path id="Tracé_86" data-name="Tracé 86" d="M32.218,82.6H24.495a5.36,5.36,0,0,1-5.083-5.473,1.661,1.661,0,0,1,3.321,0,2.07,2.07,0,0,0,1.762,2.152h7.724a2.07,2.07,0,0,0,1.762-2.152,1.661,1.661,0,0,1,3.321,0A5.36,5.36,0,0,1,32.218,82.6" transform="translate(-10.71 -41.637)" fill="#0f2f78"/>
    <path id="Tracé_87" data-name="Tracé 87" d="M28.707,115.644a1.657,1.657,0,0,1-1.66-1.66V85.63a1.66,1.66,0,1,1,3.321,0v28.354a1.657,1.657,0,0,1-1.66,1.66" transform="translate(-14.923 -46.329)" fill="#0f2f78"/>
    <path id="Tracé_88" data-name="Tracé 88" d="M45.937,115.644a1.657,1.657,0,0,1-1.66-1.66V85.63a1.66,1.66,0,1,1,3.321,0v28.354a1.657,1.657,0,0,1-1.66,1.66" transform="translate(-24.429 -46.329)" fill="#0f2f78"/>
    <path id="Tracé_89" data-name="Tracé 89" d="M139.309,82.6h-7.626a5.339,5.339,0,0,1-5.181-5.473,1.661,1.661,0,0,1,3.321,0,2.051,2.051,0,0,0,1.859,2.152h7.626a2.07,2.07,0,0,0,1.762-2.152,1.661,1.661,0,0,1,3.321,0,5.36,5.36,0,0,1-5.083,5.473" transform="translate(-69.797 -41.637)" fill="#0f2f78"/>
    <path id="Tracé_90" data-name="Tracé 90" d="M136.016,115.644a1.657,1.657,0,0,1-1.66-1.66V85.63a1.66,1.66,0,1,1,3.321,0v28.354a1.657,1.657,0,0,1-1.66,1.66" transform="translate(-74.13 -46.329)" fill="#0f2f78"/>
    <path id="Tracé_91" data-name="Tracé 91" d="M153.028,115.644a1.657,1.657,0,0,1-1.66-1.66V85.63a1.66,1.66,0,1,1,3.321,0v28.354a1.657,1.657,0,0,1-1.66,1.66" transform="translate(-83.516 -46.329)" fill="#0f2f78"/>
    <path id="Tracé_92" data-name="Tracé 92" d="M85.3,66.792H10.607a1.661,1.661,0,1,1,0-3.321H85.3a1.661,1.661,0,0,1,0,3.321" transform="translate(-4.936 -35.02)" fill="#0f2f78"/>
    <path id="Tracé_93" data-name="Tracé 93" d="M84.374,26H1.662a1.662,1.662,0,0,1-.8-3.119L42.219.2a1.678,1.678,0,0,1,1.6,0L85.171,22.884a1.662,1.662,0,0,1-.8,3.119M8.15,22.682H77.886L43.018,3.557Z" transform="translate(0 0)" fill="#0f2f78"/>
    <path id="Tracé_94" data-name="Tracé 94" d="M85.846,162.537h-70a1.661,1.661,0,1,1,0-3.321h70a1.661,1.661,0,0,1,0,3.321" transform="translate(-7.825 -87.846)" fill="#0f2f78"/>
    <path id="Tracé_95" data-name="Tracé 95" d="M84.375,180.96H1.664A1.657,1.657,0,0,1,0,179.3v-5.77a1.658,1.658,0,0,1,1.66-1.661H84.375a1.658,1.658,0,0,1,1.661,1.661v5.77a1.657,1.657,0,0,1-1.661,1.66m-81.05-3.321h79.39V175.19H3.325Z" transform="translate(-0.002 -94.827)" fill="#0f2f78"/>
    <path id="Tracé_96" data-name="Tracé 96" d="M89.109,29.319a5.72,5.72,0,1,1,5.571-5.669,5.693,5.693,0,0,1-5.571,5.669m0-8.114a2.387,2.387,0,0,0-2.25,2.445,2.252,2.252,0,1,0,4.5,0,2.387,2.387,0,0,0-2.25-2.445" transform="translate(-46.091 -9.867)" fill="#0f2f78"/>
  </g>
</svg>
