<svg xmlns="http://www.w3.org/2000/svg" width="12.463" height="12.463" viewBox="0 0 12.463 12.463">
  <path id="Icon_awesome-phone-alt" data-name="Icon awesome-phone-alt" d="M12.107,8.807,9.381,7.639a.584.584,0,0,0-.682.168L7.492,9.282A9.023,9.023,0,0,1,3.179,4.969L4.654,3.761a.583.583,0,0,0,.168-.682L3.654.353A.588.588,0,0,0,2.984.015L.453.6A.584.584,0,0,0,0,1.169,11.293,11.293,0,0,0,11.295,12.463a.584.584,0,0,0,.57-.453l.584-2.532a.591.591,0,0,0-.341-.672Z" transform="translate(0 0)" fill="#0f2f78"/>
</svg>
